<svg width="318" height="350" viewBox="0 0 318 350" fill="none" xmlns="http://www.w3.org/2000/svg">
<path fill-rule="evenodd" clip-rule="evenodd" d="M134.165 348.391C80.1654 356.391 56.6654 220.391 119.165 129.891C77.1654 69.5 52.6654 35.5 2.66541 23.8911C28.1654 8.89106 79.1739 24.6565 140.165 91.891C209.419 8.32005 257.165 -16.1089 287.165 12.3911C348.165 27.8911 295.665 151.891 295.665 151.891L228.165 202.391C286.136 108.44 305.165 40.3911 284.165 17.8911C252.665 17.8911 216.784 42.1155 160.165 116.891C230.165 213.391 190.665 357.891 134.165 348.391ZM137.806 164.891C102.806 237.891 111.806 321.891 131.806 331.891C162.806 304.891 173.806 216.391 137.806 164.891Z" fill="#0C6EBF"/>
<path d="M119.165 129.891L119.988 130.459L120.382 129.889L119.986 129.32L119.165 129.891ZM134.165 348.391L134.331 347.405L134.175 347.379L134.019 347.402L134.165 348.391ZM2.66541 23.8911L2.15839 23.0291L-5.45979e-05 24.2988L2.43924 24.8651L2.66541 23.8911ZM140.165 91.891L139.425 92.5629L140.2 93.417L140.935 92.5291L140.165 91.891ZM287.165 12.3911L286.477 13.1161L286.666 13.2959L286.919 13.3603L287.165 12.3911ZM295.665 151.891L296.264 152.692L296.481 152.53L296.586 152.281L295.665 151.891ZM228.165 202.391L227.314 201.866L228.764 203.192L228.165 202.391ZM284.165 17.8911L284.896 17.2088L284.6 16.8911H284.165V17.8911ZM160.165 116.891L159.368 116.287L158.921 116.878L159.356 117.478L160.165 116.891ZM137.806 164.891L138.625 164.318L137.644 162.915L136.904 164.459L137.806 164.891ZM131.806 331.891L131.358 332.786L131.957 333.085L132.462 332.645L131.806 331.891ZM119.165 129.891L118.343 129.323C86.9363 174.799 77.1494 231.672 81.9837 276.187C84.4006 298.44 90.4808 317.693 99.423 330.912C108.375 344.146 120.304 351.456 134.312 349.38L134.165 348.391L134.019 347.402C121.027 349.327 109.768 342.636 101.08 329.792C92.3813 316.933 86.3678 298.03 83.9721 275.971C79.1814 231.86 88.8945 175.483 119.988 130.459L119.165 129.891ZM2.66541 23.8911L2.43924 24.8651C52.0027 36.3727 76.2982 70.0046 118.344 130.462L119.165 129.891L119.986 129.32C78.0326 68.9954 53.3281 34.6273 2.89157 22.917L2.66541 23.8911ZM140.165 91.891L140.906 91.2192C110.351 57.5369 82.2427 36.6841 58.5122 26.1392C34.8066 15.6055 15.3048 15.2959 2.15839 23.0291L2.66541 23.8911L3.17243 24.753C15.526 17.4862 34.2785 17.5593 57.7 27.9669C81.0966 38.3634 108.988 59.0106 139.425 92.5629L140.165 91.891ZM287.165 12.3911L287.854 11.6661C280.193 4.38788 271.359 0.460977 261.321 0.0382155C251.309 -0.383474 240.185 2.68401 227.915 9.2322C203.394 22.3181 174.043 49.4431 139.395 91.253L140.165 91.891L140.935 92.5291C175.542 50.768 204.691 23.893 228.856 10.9967C240.929 4.55374 251.695 1.63454 261.237 2.03644C270.754 2.43727 279.138 6.14424 286.477 13.1161L287.165 12.3911ZM295.665 151.891C296.586 152.281 296.587 152.28 296.587 152.279C296.587 152.278 296.588 152.276 296.589 152.274C296.591 152.27 296.593 152.264 296.596 152.257C296.603 152.241 296.613 152.218 296.626 152.188C296.651 152.127 296.689 152.037 296.738 151.918C296.836 151.68 296.981 151.329 297.167 150.87C297.539 149.953 298.075 148.608 298.735 146.892C300.056 143.459 301.874 138.541 303.864 132.591C307.842 120.696 312.515 104.657 315.277 88.1183C318.035 71.5995 318.905 54.4799 315.195 40.471C311.469 26.4029 303.093 15.4065 287.412 11.4219L287.165 12.3911L286.919 13.3603C301.738 17.1256 309.675 27.4418 313.261 40.983C316.863 54.5835 316.046 71.3701 313.304 87.7889C310.566 104.187 305.926 120.117 301.967 131.957C299.988 137.874 298.181 142.764 296.869 146.174C296.213 147.878 295.681 149.212 295.313 150.119C295.13 150.573 294.987 150.919 294.89 151.152C294.842 151.268 294.805 151.356 294.781 151.415C294.769 151.444 294.759 151.466 294.753 151.48C294.75 151.487 294.748 151.493 294.747 151.496C294.746 151.498 294.745 151.499 294.745 151.5C294.745 151.501 294.745 151.501 295.665 151.891ZM228.165 202.391L228.764 203.192L296.264 152.692L295.665 151.891L295.066 151.09L227.566 201.59L228.165 202.391ZM284.165 17.8911L283.434 18.5734C288.455 23.9525 291.167 32.1468 291.427 43.0234C291.687 53.8933 289.493 67.3344 284.821 83.062C275.477 114.514 256.275 154.93 227.314 201.866L228.165 202.391L229.016 202.916C258.026 155.901 277.324 115.317 286.738 83.6316C291.444 67.7907 293.693 54.1289 293.427 42.9756C293.16 31.8289 290.376 23.0796 284.896 17.2088L284.165 17.8911ZM160.165 116.891L160.963 117.495C189.25 80.1352 212.313 55.4661 232.195 40.1423C252.064 24.8289 268.7 18.8911 284.165 18.8911V17.8911V16.8911C268.13 16.8911 251.076 23.0655 230.974 38.5582C210.886 54.0405 187.699 78.8713 159.368 116.287L160.165 116.891ZM134.165 348.391L134 349.377C148.625 351.836 162.019 344.291 172.7 330.407C183.382 316.523 191.476 296.169 195.588 272.563C203.813 225.348 196.162 164.812 160.975 116.304L160.165 116.891L159.356 117.478C194.169 165.47 201.768 225.434 193.618 272.219C189.542 295.614 181.542 315.634 171.115 329.188C160.687 342.741 147.956 349.696 134.331 347.405L134.165 348.391ZM137.806 164.891L136.904 164.459C119.329 201.115 112.804 240.52 113.181 272.028C113.369 287.781 115.283 301.596 118.426 312.13C119.997 317.396 121.883 321.87 124.034 325.363C126.18 328.846 128.63 331.421 131.358 332.786L131.806 331.891L132.253 330.997C129.982 329.861 127.776 327.624 125.737 324.314C123.705 321.014 121.88 316.714 120.342 311.558C117.266 301.248 115.367 287.626 115.181 272.004C114.807 240.762 121.282 201.667 138.707 165.323L137.806 164.891ZM131.806 331.891L132.462 332.645C140.382 325.748 146.958 314.988 151.82 301.999C156.687 288.998 159.86 273.698 160.928 257.645C163.063 225.561 156.795 190.312 138.625 164.318L137.806 164.891L136.986 165.464C154.816 190.971 161.048 225.721 158.933 257.512C157.876 273.397 154.737 288.502 149.947 301.298C145.153 314.107 138.73 324.534 131.149 331.137L131.806 331.891ZM137.707 165.097L138.504 164.493C138.322 164.253 138.139 164.015 137.955 163.778L137.165 164.391L136.376 165.004C136.555 165.235 136.733 165.468 136.91 165.701L137.707 165.097Z" fill="#0C6EBF"/>
</svg>
