<svg width="526" height="526" viewBox="0 0 526 526" fill="none" xmlns="http://www.w3.org/2000/svg">
<circle cx="263" cy="263" r="263" fill="#F2F2F2"/>
<g filter="url(#filter0_d_2201_2)">
<path fill-rule="evenodd" clip-rule="evenodd" d="M252.5 444.391C198.5 452.391 175 316.391 237.5 225.891C195.5 165.5 171 131.5 121 119.891C146.5 104.891 197.508 120.656 258.5 187.891C327.754 104.32 375.5 79.8911 405.5 108.391C466.5 123.891 414 247.891 414 247.891L346.5 298.391C404.47 204.44 423.5 136.391 402.5 113.891C371 113.891 335.118 138.115 278.5 212.891C348.5 309.391 309 453.891 252.5 444.391ZM256.14 260.891C221.14 333.891 230.14 417.891 250.14 427.891C281.14 400.891 292.14 312.391 256.14 260.891Z" fill="#272727"/>
</g>
<defs>
<filter id="filter0_d_2201_2" x="80.3" y="92.3" width="354.705" height="385.237" filterUnits="userSpaceOnUse" color-interpolation-filters="sRGB">
<feFlood flood-opacity="0" result="BackgroundImageFix"/>
<feColorMatrix in="SourceAlpha" type="matrix" values="0 0 0 0 0 0 0 0 0 0 0 0 0 0 0 0 0 0 127 0" result="hardAlpha"/>
<feOffset dx="-22" dy="14"/>
<feGaussianBlur stdDeviation="9.35"/>
<feComposite in2="hardAlpha" operator="out"/>
<feColorMatrix type="matrix" values="0 0 0 0 0 0 0 0 0 0 0 0 0 0 0 0 0 0 0.25 0"/>
<feBlend mode="normal" in2="BackgroundImageFix" result="effect1_dropShadow_2201_2"/>
<feBlend mode="normal" in="SourceGraphic" in2="effect1_dropShadow_2201_2" result="shape"/>
</filter>
</defs>
</svg>
